<svg version="1.1" viewBox="0.0 0.0 716.6377952755905 249.09448818897638" fill="none" stroke="none" stroke-linecap="square" stroke-miterlimit="10" xmlns:xlink="http://www.w3.org/1999/xlink" xmlns="http://www.w3.org/2000/svg"><clipPath id="p.0"><path d="m0 0l716.6378 0l0 249.09448l-716.6378 0l0 -249.09448z" clip-rule="nonzero"/></clipPath><g clip-path="url(#p.0)"><path fill="#000000" fill-opacity="0.0" d="m0 0l716.6378 0l0 249.09448l-716.6378 0z" fill-rule="evenodd"/><path fill="#000000" fill-opacity="0.0" d="m0 0l250.99213 0l0 248.37796l-250.99213 0z" fill-rule="evenodd"/><path fill="#b7b7b7" d="m148.32812 246.18898q-34.65625 0 -62.5 -15.328125q-27.828125 -15.34375 -43.671875 -42.5q-15.828125 -27.171875 -15.828125 -60.84375q0 -33.65625 15.828125 -60.8125q15.84375 -27.171875 43.84375 -42.5q28.0 -15.34375 62.671875 -15.34375q25.984375 0 47.984375 8.671875q22.0 8.65625 37.34375 25.328125l-15.671875 15.671875q-27.328125 -27.671875 -69.0 -27.671875q-27.65625 0 -50.328125 12.671875q-22.671875 12.65625 -35.5 34.65625q-12.828125 22.0 -12.828125 49.328125q0 27.34375 12.828125 49.34375q12.828125 22.0 35.5 34.671875q22.671875 12.65625 50.328125 12.65625q42.0 0 69.0 -28.0l15.671875 15.671875q-15.34375 16.65625 -37.515625 25.5q-22.15625 8.828125 -48.15625 8.828125z" fill-rule="nonzero"/><path fill="#000000" fill-opacity="0.0" d="m240.96 0l496.72437 0l0 248.37796l-496.72437 0z" fill-rule="evenodd"/><path fill="#b7b7b7" d="m283.44437 111.931244q-8.09375 0 -14.609375 -3.671875q-6.5 -3.6875 -10.234375 -10.1875q-3.7343597 -6.515625 -3.7343597 -14.71875q0 -8.21875 3.7343597 -14.71875q3.734375 -6.515625 10.234375 -10.140625q6.515625 -3.625 14.609375 -3.625q8.109375 0 14.609375 3.625q6.515625 3.625 10.1875 10.140625q3.6875 6.5 3.6875 14.71875q0 8.203125 -3.6875 14.71875q-3.671875 6.5 -10.1875 10.1875q-6.5 3.671875 -14.609375 3.671875zm0 -6.71875q5.984375 0 10.71875 -2.71875q4.75 -2.71875 7.40625 -7.734375q2.671875 -5.015625 2.671875 -11.40625q0 -6.40625 -2.671875 -11.40625q-2.65625 -5.015625 -7.40625 -7.734375q-4.734375 -2.734375 -10.71875 -2.734375q-5.96875 0 -10.71875 2.734375q-4.734375 2.71875 -7.46875 7.734375q-2.71875 5.0 -2.71875 11.40625q0 6.390625 2.71875 11.40625q2.734375 5.015625 7.46875 7.734375q4.75 2.71875 10.71875 2.71875zm43.95163 -72.953125l7.5625 0l0 79.140625l-7.5625 0l0 -79.140625zm28.690552 0l7.5625 0l0 79.140625l-7.5625 0l0 -79.140625zm77.5343 53.4375l-46.921875 0q0.640625 8.75 6.71875 14.140625q6.078125 5.375 15.359375 5.375q5.21875 0 9.59375 -1.859375q4.375 -1.875 7.578125 -5.5l4.265625 4.90625q-3.734375 4.484375 -9.34375 6.828125q-5.59375 2.34375 -12.3125 2.34375q-8.640625 0 -15.3125 -3.671875q-6.65625 -3.6875 -10.390625 -10.1875q-3.734375 -6.515625 -3.734375 -14.71875q0 -8.21875 3.5625 -14.71875q3.578125 -6.515625 9.8125 -10.140625q6.25 -3.625 14.03125 -3.625q7.796875 0 13.96875 3.625q6.1875 3.625 9.703125 10.078125q3.53125 6.453125 3.53125 14.78125l-0.109375 2.34375zm-27.09375 -24.3125q-8.09375 0 -13.59375 5.171875q-5.5 5.171875 -6.234375 13.484375l39.78125 0q-0.75 -8.3125 -6.25 -13.484375q-5.484375 -5.171875 -13.703125 -5.171875zm94.60791 -6.078125l0 49.265625q0 14.296875 -6.984375 21.171875q-6.984375 6.875 -21.0625 6.875q-7.78125 0 -14.78125 -2.296875q-6.984375 -2.28125 -11.359375 -6.34375l3.84375 -5.75q4.0625 3.625 9.875 5.640625q5.8125 2.03125 12.203125 2.03125q10.671875 0 15.671875 -4.953125q5.015625 -4.953125 5.015625 -15.40625l0 -7.15625q-3.515625 5.34375 -9.21875 8.109375q-5.703125 2.765625 -12.640625 2.765625q-7.890625 0 -14.34375 -3.453125q-6.453125 -3.46875 -10.140625 -9.703125q-3.671875 -6.25 -3.671875 -14.140625q0 -7.890625 3.671875 -14.078125q3.6875 -6.1875 10.078125 -9.59375q6.40625 -3.421875 14.40625 -3.421875q7.140625 0 12.90625 2.890625q5.765625 2.875 9.28125 8.3125l0 -10.765625l7.25 0zm-28.6875 47.234375q6.078125 0 10.984375 -2.609375q4.90625 -2.609375 7.625 -7.296875q2.71875 -4.703125 2.71875 -10.671875q0 -5.96875 -2.71875 -10.609375q-2.71875 -4.640625 -7.578125 -7.25q-4.84375 -2.625 -11.03125 -2.625q-6.078125 0 -10.9375 2.5625q-4.84375 2.5625 -7.578125 7.265625q-2.71875 4.6875 -2.71875 10.65625q0 5.96875 2.71875 10.671875q2.734375 4.6875 7.578125 7.296875q4.859375 2.609375 10.9375 2.609375zm98.76001 -16.84375l-46.921875 0q0.640625 8.75 6.71875 14.140625q6.078125 5.375 15.359375 5.375q5.21875 0 9.59375 -1.859375q4.375 -1.875 7.578125 -5.5l4.265625 4.90625q-3.734375 4.484375 -9.34375 6.828125q-5.59375 2.34375 -12.3125 2.34375q-8.640625 0 -15.3125 -3.671875q-6.65625 -3.6875 -10.390625 -10.1875q-3.734375 -6.515625 -3.734375 -14.71875q0 -8.21875 3.5625 -14.71875q3.578125 -6.515625 9.8125 -10.140625q6.25 -3.625 14.03125 -3.625q7.796875 0 13.96875 3.625q6.1875 3.625 9.703125 10.078125q3.53125 6.453125 3.53125 14.78125l-0.109375 2.34375zm-27.09375 -24.3125q-8.09375 0 -13.59375 5.171875q-5.5 5.171875 -6.234375 13.484375l39.78125 0q-0.75 -8.3125 -6.25 -13.484375q-5.484375 -5.171875 -13.703125 -5.171875z" fill-rule="nonzero"/><path fill="#b7b7b7" d="m280.1475 182.86874q10.984375 0 16.84375 5.5q5.875 5.484375 5.875 16.265625l0 34.765625l-7.25 0l0 -8.75q-2.5625 4.375 -7.53125 6.828125q-4.953125 2.453125 -11.78125 2.453125q-9.390625 0 -14.9375 -4.46875q-5.5468597 -4.484375 -5.5468597 -11.84375q0 -7.15625 5.1718597 -11.515625q5.1875 -4.375 16.484375 -4.375l17.8125 0l0 -3.421875q0 -7.25 -4.0625 -11.03125q-4.046875 -3.796875 -11.828125 -3.796875q-5.328125 0 -10.234375 1.765625q-4.90625 1.765625 -8.4375 4.859375l-3.40625 -5.65625q4.265625 -3.625 10.234375 -5.59375q5.984375 -1.984375 12.59375 -1.984375zm-2.671875 51.09375q6.40625 0 10.984375 -2.9375q4.59375 -2.9375 6.828125 -8.484375l0 -9.171875l-17.59375 0q-14.40625 0 -14.40625 10.03125q0 4.90625 3.734375 7.734375q3.734375 2.828125 10.453125 2.828125zm45.97412 -73.703125l7.5625 0l0 79.140625l-7.5625 0l0 -79.140625zm51.94055 79.671875q-8.328125 0 -14.890625 -3.625q-6.546875 -3.625 -10.28125 -10.1875q-3.734375 -6.5625 -3.734375 -14.765625q0 -8.21875 3.734375 -14.71875q3.734375 -6.515625 10.28125 -10.140625q6.5625 -3.625 14.890625 -3.625q7.25 0 12.953125 2.828125q5.703125 2.828125 9.015625 8.265625l-5.65625 3.84375q-2.765625 -4.15625 -7.03125 -6.234375q-4.265625 -2.09375 -9.28125 -2.09375q-6.078125 0 -10.9375 2.734375q-4.84375 2.71875 -7.578125 7.734375q-2.71875 5.0 -2.71875 11.40625q0 6.5 2.71875 11.46875q2.734375 4.953125 7.578125 7.671875q4.859375 2.71875 10.9375 2.71875q5.015625 0 9.28125 -2.015625q4.265625 -2.03125 7.03125 -6.203125l5.65625 3.84375q-3.3125 5.4375 -9.078125 8.265625q-5.75 2.828125 -12.890625 2.828125zm87.34436 -56.625l0 56.09375l-7.25 0l0 -10.234375q-2.984375 5.109375 -8.21875 7.9375q-5.21875 2.828125 -11.9375 2.828125q-10.984375 0 -17.328125 -6.125q-6.34375 -6.140625 -6.34375 -17.984375l0 -32.515625l7.5625 0l0 31.78125q0 8.84375 4.375 13.4375q4.375 4.578125 12.484375 4.578125q8.84375 0 13.96875 -5.375q5.125 -5.390625 5.125 -15.0l0 -29.421875l7.5625 0zm21.232819 -23.046875l7.5625 0l0 79.140625l-7.5625 0l0 -79.140625zm48.31555 22.609375q10.984375 0 16.84375 5.5q5.875 5.484375 5.875 16.265625l0 34.765625l-7.25 0l0 -8.75q-2.5625 4.375 -7.53125 6.828125q-4.953125 2.453125 -11.78125 2.453125q-9.390625 0 -14.9375 -4.46875q-5.546875 -4.484375 -5.546875 -11.84375q0 -7.15625 5.171875 -11.515625q5.1875 -4.375 16.484375 -4.375l17.8125 0l0 -3.421875q0 -7.25 -4.0625 -11.03125q-4.046875 -3.796875 -11.828125 -3.796875q-5.328125 0 -10.234375 1.765625q-4.90625 1.765625 -8.4375 4.859375l-3.40625 -5.65625q4.265625 -3.625 10.234375 -5.59375q5.984375 -1.984375 12.59375 -1.984375zm-2.671875 51.09375q6.40625 0 10.984375 -2.9375q4.59375 -2.9375 6.828125 -8.484375l0 -9.171875l-17.59375 0q-14.40625 0 -14.40625 10.03125q0 4.90625 3.734375 7.734375q3.734375 2.828125 10.453125 2.828125zm75.520996 2.03125q-2.140625 1.90625 -5.296875 2.921875q-3.140625 1.015625 -6.546875 1.015625q-7.890625 0 -12.15625 -4.265625q-4.265625 -4.265625 -4.265625 -12.046875l0 -33.921875l-10.03125 0l0 -6.390625l10.03125 0l0 -12.265625l7.5625 0l0 12.265625l17.0625 0l0 6.390625l-17.0625 0l0 33.484375q0 5.015625 2.5 7.640625q2.515625 2.609375 7.203125 2.609375q2.359375 0 4.546875 -0.75q2.1875 -0.75 3.78125 -2.140625l2.671875 5.453125zm36.67743 3.9375q-8.09375 0 -14.609375 -3.671875q-6.5 -3.6875 -10.234375 -10.1875q-3.734375 -6.515625 -3.734375 -14.71875q0 -8.21875 3.734375 -14.71875q3.734375 -6.515625 10.234375 -10.140625q6.515625 -3.625 14.609375 -3.625q8.109375 0 14.609375 3.625q6.515625 3.625 10.1875 10.140625q3.6875 6.5 3.6875 14.71875q0 8.203125 -3.6875 14.71875q-3.671875 6.5 -10.1875 10.1875q-6.5 3.671875 -14.609375 3.671875zm0 -6.71875q5.984375 0 10.71875 -2.71875q4.75 -2.71875 7.40625 -7.734375q2.671875 -5.015625 2.671875 -11.40625q0 -6.40625 -2.671875 -11.40625q-2.65625 -5.015625 -7.40625 -7.734375q-4.734375 -2.734375 -10.71875 -2.734375q-5.96875 0 -10.71875 2.734375q-4.734375 2.71875 -7.46875 7.734375q-2.71875 5.0 -2.71875 11.40625q0 6.390625 2.71875 11.40625q2.734375 5.015625 7.46875 7.734375q4.75 2.71875 10.71875 2.71875zm51.20166 -38.921875q2.671875 -5.65625 7.9375 -8.53125q5.28125 -2.890625 13.078125 -2.890625l0 7.359375l-1.8125 -0.109375q-8.859375 0 -13.875 5.453125q-5.015625 5.4375 -5.015625 15.25l0 28.578125l-7.5625 0l0 -56.09375l7.25 0l0 10.984375z" fill-rule="nonzero"/><path fill="#000000" fill-opacity="0.0" d="m565.7664 7.070866l62.078735 0l0 19.244095l-62.078735 0z" fill-rule="evenodd"/></g></svg>